<?xml version="1.0" encoding="UTF-8"?>
<!DOCTYPE svg PUBLIC "-//W3C//DTD SVG 1.1//EN" "http://www.w3.org/Graphics/SVG/1.1/DTD/svg11.dtd">
<svg xmlns="http://www.w3.org/2000/svg" version="1.1" width="512px" height="512px" style="shape-rendering:geometricPrecision; text-rendering:geometricPrecision; image-rendering:optimizeQuality; fill-rule:evenodd; clip-rule:evenodd" xmlns:xlink="http://www.w3.org/1999/xlink">
<g><path style="opacity:0.98" fill="#2d6994" d="M 120.5,-0.5 C 134.833,-0.5 149.167,-0.5 163.5,-0.5C 163.5,36.1667 163.5,72.8333 163.5,109.5C 163.5,109.833 163.5,110.167 163.5,110.5C 149.167,110.5 134.833,110.5 120.5,110.5C 120.5,73.5 120.5,36.5 120.5,-0.5 Z"/></g>
<g><path style="opacity:1" fill="#2d5177" d="M 163.5,-0.5 C 173.5,-0.5 183.5,-0.5 193.5,-0.5C 193.5,36.1667 193.5,72.8333 193.5,109.5C 183.5,109.5 173.5,109.5 163.5,109.5C 163.5,72.8333 163.5,36.1667 163.5,-0.5 Z"/></g>
<g><path style="opacity:1" fill="#2d6994" d="M 193.5,-0.5 C 209.167,-0.5 224.833,-0.5 240.5,-0.5C 240.5,36.1667 240.5,72.8333 240.5,109.5C 224.833,109.5 209.167,109.5 193.5,109.5C 193.5,72.8333 193.5,36.1667 193.5,-0.5 Z"/></g>
<g><path style="opacity:1" fill="#2d5177" d="M 240.5,-0.5 C 245.5,-0.5 250.5,-0.5 255.5,-0.5C 255.5,36.1667 255.5,72.8333 255.5,109.5C 250.5,109.5 245.5,109.5 240.5,109.5C 240.5,72.8333 240.5,36.1667 240.5,-0.5 Z"/></g>
<g><path style="opacity:1" fill="#32405d" d="M 255.5,-0.5 C 260.5,-0.5 265.5,-0.5 270.5,-0.5C 270.5,36.1667 270.5,72.8333 270.5,109.5C 265.5,109.5 260.5,109.5 255.5,109.5C 255.5,72.8333 255.5,36.1667 255.5,-0.5 Z"/></g>
<g><path style="opacity:1" fill="#2d5177" d="M 270.5,-0.5 C 286.167,-0.5 301.833,-0.5 317.5,-0.5C 317.5,36.1667 317.5,72.8333 317.5,109.5C 301.833,109.5 286.167,109.5 270.5,109.5C 270.5,72.8333 270.5,36.1667 270.5,-0.5 Z"/></g>
<g><path style="opacity:1" fill="#32405d" d="M 317.5,-0.5 C 327.5,-0.5 337.5,-0.5 347.5,-0.5C 347.5,36.1667 347.5,72.8333 347.5,109.5C 337.5,109.5 327.5,109.5 317.5,109.5C 317.5,72.8333 317.5,36.1667 317.5,-0.5 Z"/></g>
<g><path style="opacity:1" fill="#2d5177" d="M 347.5,-0.5 C 361.833,-0.5 376.167,-0.5 390.5,-0.5C 390.5,36.5 390.5,73.5 390.5,110.5C 376.167,110.5 361.833,110.5 347.5,110.5C 347.5,110.167 347.5,109.833 347.5,109.5C 347.5,72.8333 347.5,36.1667 347.5,-0.5 Z"/></g>
<g><path style="opacity:0.996" fill="#ccddfd" d="M 163.5,110.5 C 194.167,110.5 224.833,110.5 255.5,110.5C 255.5,157.167 255.5,203.833 255.5,250.5C 318.167,250.5 380.833,250.5 443.5,250.5C 443.5,250.833 443.5,251.167 443.5,251.5C 380.833,251.5 318.167,251.5 255.5,251.5C 192.833,251.5 130.167,251.5 67.5,251.5C 67.1672,234.487 67.5005,217.487 68.5,200.5C 99.8333,181.5 131.167,162.5 162.5,143.5C 163.499,132.52 163.832,121.52 163.5,110.5 Z"/></g>
<g><path style="opacity:1" fill="#afc3e6" d="M 163.5,110.5 C 163.5,110.167 163.5,109.833 163.5,109.5C 173.5,109.5 183.5,109.5 193.5,109.5C 209.167,109.5 224.833,109.5 240.5,109.5C 245.5,109.5 250.5,109.5 255.5,109.5C 260.5,109.5 265.5,109.5 270.5,109.5C 286.167,109.5 301.833,109.5 317.5,109.5C 327.5,109.5 337.5,109.5 347.5,109.5C 347.5,109.833 347.5,110.167 347.5,110.5C 347.168,121.52 347.501,132.52 348.5,143.5C 379.833,162.5 411.167,181.5 442.5,200.5C 443.499,217.153 443.833,233.82 443.5,250.5C 380.833,250.5 318.167,250.5 255.5,250.5C 255.5,203.833 255.5,157.167 255.5,110.5C 224.833,110.5 194.167,110.5 163.5,110.5 Z"/></g>
<g><path style="opacity:1" fill="#e7fefe" d="M 67.5,251.5 C 130.167,251.5 192.833,251.5 255.5,251.5C 255.5,267.833 255.5,284.167 255.5,300.5C 248.167,300.5 240.833,300.5 233.5,300.5C 233.5,311.167 233.5,321.833 233.5,332.5C 222.833,332.5 212.167,332.5 201.5,332.5C 201.5,347.167 201.5,361.833 201.5,376.5C 212.167,376.5 222.833,376.5 233.5,376.5C 233.5,387.167 233.5,397.833 233.5,408.5C 240.833,408.5 248.167,408.5 255.5,408.5C 255.5,424.833 255.5,441.167 255.5,457.5C 192.833,457.5 130.167,457.5 67.5,457.5C 67.5,388.833 67.5,320.167 67.5,251.5 Z"/></g>
<g><path style="opacity:1" fill="#daf1fd" d="M 255.5,251.5 C 318.167,251.5 380.833,251.5 443.5,251.5C 443.5,320.5 443.5,389.5 443.5,458.5C 380.833,458.5 318.167,458.5 255.5,458.5C 192.833,458.5 130.167,458.5 67.5,458.5C 67.5,458.167 67.5,457.833 67.5,457.5C 130.167,457.5 192.833,457.5 255.5,457.5C 255.5,441.167 255.5,424.833 255.5,408.5C 262.833,408.5 270.167,408.5 277.5,408.5C 277.5,397.833 277.5,387.167 277.5,376.5C 288.167,376.5 298.833,376.5 309.5,376.5C 309.5,361.833 309.5,347.167 309.5,332.5C 298.833,332.5 288.167,332.5 277.5,332.5C 277.5,321.833 277.5,311.167 277.5,300.5C 270.167,300.5 262.833,300.5 255.5,300.5C 255.5,284.167 255.5,267.833 255.5,251.5 Z"/></g>
<g><path style="opacity:1" fill="#f85d74" d="M 255.5,300.5 C 255.5,300.833 255.5,301.167 255.5,301.5C 248.5,301.5 241.5,301.5 234.5,301.5C 234.828,312.014 234.494,322.347 233.5,332.5C 233.5,321.833 233.5,311.167 233.5,300.5C 240.833,300.5 248.167,300.5 255.5,300.5 Z"/></g>
<g><path style="opacity:1" fill="#fb445f" d="M 255.5,301.5 C 255.5,337.167 255.5,372.833 255.5,408.5C 248.167,408.5 240.833,408.5 233.5,408.5C 233.5,397.833 233.5,387.167 233.5,376.5C 222.833,376.5 212.167,376.5 201.5,376.5C 201.5,361.833 201.5,347.167 201.5,332.5C 212.167,332.5 222.833,332.5 233.5,332.5C 234.494,322.347 234.828,312.014 234.5,301.5C 241.5,301.5 248.5,301.5 255.5,301.5 Z"/></g>
<g><path style="opacity:1" fill="#ce0c52" d="M 255.5,300.5 C 262.833,300.5 270.167,300.5 277.5,300.5C 277.5,311.167 277.5,321.833 277.5,332.5C 288.167,332.5 298.833,332.5 309.5,332.5C 309.5,347.167 309.5,361.833 309.5,376.5C 298.833,376.5 288.167,376.5 277.5,376.5C 277.5,387.167 277.5,397.833 277.5,408.5C 270.167,408.5 262.833,408.5 255.5,408.5C 255.5,372.833 255.5,337.167 255.5,301.5C 255.5,301.167 255.5,300.833 255.5,300.5 Z"/></g>
<g><path style="opacity:0.996" fill="#ccddfe" d="M 67.5,458.5 C 130.167,458.5 192.833,458.5 255.5,458.5C 255.5,476.167 255.5,493.833 255.5,511.5C 192.833,511.5 130.167,511.5 67.5,511.5C 67.5,493.833 67.5,476.167 67.5,458.5 Z"/></g>
<g><path style="opacity:1" fill="#b0c4e7" d="M 255.5,458.5 C 318.167,458.5 380.833,458.5 443.5,458.5C 443.5,476.167 443.5,493.833 443.5,511.5C 380.833,511.5 318.167,511.5 255.5,511.5C 255.5,493.833 255.5,476.167 255.5,458.5 Z"/></g>
</svg>
